<?xml version="1.0" encoding="UTF-8" standalone="no"?>
<!-- Generator: Adobe Illustrator 16.1.0, SVG Export Plug-In . SVG Version: 6.00 Build 0)  -->

<svg
   xmlns:dc="http://purl.org/dc/elements/1.1/"
   xmlns:cc="http://creativecommons.org/ns#"
   xmlns:rdf="http://www.w3.org/1999/02/22-rdf-syntax-ns#"
   xmlns:svg="http://www.w3.org/2000/svg"
   xmlns="http://www.w3.org/2000/svg"
   xmlns:sodipodi="http://sodipodi.sourceforge.net/DTD/sodipodi-0.dtd"
   xmlns:inkscape="http://www.inkscape.org/namespaces/inkscape"
   version="1.1"
   id="Layer_1"
   x="0px"
   y="0px"
   width="48px"
   height="48px"
   viewBox="0 0 48 48"
   enable-background="new 0 0 48 48"
   xml:space="preserve"
   inkscape:version="0.48.4 r9939"
   sodipodi:docname="curves.svg"><metadata
     id="metadata3094"><rdf:RDF><cc:Work
         rdf:about=""><dc:format>image/svg+xml</dc:format><dc:type
           rdf:resource="http://purl.org/dc/dcmitype/StillImage" /><dc:title></dc:title></cc:Work></rdf:RDF></metadata><defs
     id="defs3092"><inkscape:path-effect
       effect="spiro"
       id="path-effect3884"
       is_visible="true" /><inkscape:path-effect
       effect="spiro"
       id="path-effect3880"
       is_visible="true" /><inkscape:path-effect
       effect="spiro"
       id="path-effect3876"
       is_visible="true" /><inkscape:path-effect
       effect="spiro"
       id="path-effect3872"
       is_visible="true" /><inkscape:path-effect
       effect="spiro"
       id="path-effect3868"
       is_visible="true" /></defs><sodipodi:namedview
     pagecolor="#ffffff"
     bordercolor="#666666"
     borderopacity="1"
     objecttolerance="10"
     gridtolerance="10"
     guidetolerance="10"
     inkscape:pageopacity="0"
     inkscape:pageshadow="2"
     inkscape:window-width="2558"
     inkscape:window-height="1580"
     id="namedview3090"
     showgrid="false"
     inkscape:zoom="29.104167"
     inkscape:cx="34.457891"
     inkscape:cy="26.176408"
     inkscape:window-x="0"
     inkscape:window-y="18"
     inkscape:window-maximized="0"
     inkscape:current-layer="Layer_1" /><path
     style="fill:none;stroke:#000000;stroke-width:1.79999995;stroke-linecap:butt;stroke-linejoin:miter;stroke-miterlimit:4;stroke-opacity:1;stroke-dasharray:none"
     d="m 6.9749463,13.503221 c 1.3061994,-2.245166 3.7912667,-3.7578142 6.3855447,-3.8868489 2.594278,-0.1290347 5.217182,1.1295519 6.739724,3.2340219 0.897468,1.240488 1.414254,2.722933 1.701467,4.22685 0.287214,1.503917 0.355446,3.039803 0.428811,4.569142 0.120948,2.521251 0.273957,5.110486 1.320322,7.40754 0.523182,1.148527 1.271852,2.207277 2.25445,2.999323 0.982597,0.792046 2.207389,1.306097 3.468894,1.344031 1.366565,0.04109 2.73409,-0.488458 3.745168,-1.408734 1.097351,-0.998801 1.757047,-2.405085 2.103072,-3.848016 0.346026,-1.442931 0.402924,-2.937181 0.462619,-4.419821 0.0597,-1.482639 0.125437,-2.977388 0.488248,-4.41619 0.362811,-1.438802 1.048359,-2.83549 2.168681,-3.808455 1.059384,-0.920043 2.481261,-1.410779 3.882605,-1.340015"
     id="path3878"
     inkscape:path-effect="#path-effect3880"
     inkscape:original-d="m 6.9749463,13.503221 c 0,0 -126.2216363,-299.680901 13.1252687,-0.652827 2.857693,6.132396 0.067,2.83066 2.130278,8.795992 2.639628,7.631662 77.714735,139.598724 7.043666,11.750894 -38.1887348,-69.085517 5.82229,-5.330914 3.745168,-1.408734 -0.849678,1.604427 4.795377,-13.943953 5.22262,-16.492482 0.410899,-2.451035 3.882605,-1.340015 3.882605,-1.340015"
     inkscape:connector-curvature="0"
     sodipodi:nodetypes="csssssc" /><path
     style="fill:none;stroke:#000000;stroke-width:1.79999995;stroke-linecap:butt;stroke-linejoin:miter;stroke-miterlimit:4;stroke-opacity:1;stroke-dasharray:none"
     d="m 7.1123838,17.72942 c 0.8485847,-1.470204 2.2423636,-2.617285 3.8483512,-3.167195 1.605987,-0.54991 3.410346,-0.497911 4.981999,0.143574 1.4806,0.604321 2.715903,1.691998 3.779528,2.886184 2.049765,2.301377 3.546794,5.029602 5.256981,7.593414 0.48713,0.730277 0.997786,1.454588 1.642499,2.050361 0.644713,0.595773 1.439085,1.060443 2.308824,1.179417 0.981589,0.134274 1.989878,-0.185789 2.809675,-0.742098 0.819797,-0.556309 1.467284,-1.334385 2.007331,-2.164984 1.080094,-1.6612 1.7915,-3.590586 3.188719,-4.995565 1.354043,-1.361563 3.305744,-2.106292 5.222621,-1.992843"
     id="path3882"
     inkscape:path-effect="#path-effect3884"
     inkscape:original-d="m 7.1123838,17.72942 c -2.5082323,4.569792 4.8946642,-2.066983 8.8303502,-3.023621 4.62734,-1.124757 9.063507,7.221278 3.779528,2.886184 -3.893959,-3.19469 96.575758,-49.117798 5.256981,7.593414 -1.451825,0.901619 5.50756,5.157907 3.951323,3.229778 -544.839326,-675.039065 7.009284,-5.11954 8.005725,-7.902647 1.047881,-2.926781 4.741591,-2.13028 5.222621,-1.992843"
     inkscape:connector-curvature="0"
     sodipodi:nodetypes="csssssc" /><polygon
     fill="#B2B2B2"
     points="8,40 8,6 6,6 6,40 6,40 6,42 6,42 8,42 42,42 42,40 "
     id="polygon3088" /><rect
     style="fill:#ffffff;fill-opacity:1;stroke:#ffffff;stroke-width:1.80000007;stroke-linecap:square;stroke-miterlimit:4;stroke-opacity:1;stroke-dasharray:none;stroke-dashoffset:0"
     id="rect3905"
     width="0.30923393"
     height="35.080887"
     x="55.799572"
     y="7.3185391" /></svg>