<?xml version="1.0" encoding="utf-8"?>
<!-- Generator: Adobe Illustrator 16.0.0, SVG Export Plug-In . SVG Version: 6.00 Build 0)  -->
<!DOCTYPE svg PUBLIC "-//W3C//DTD SVG 1.1//EN" "http://www.w3.org/Graphics/SVG/1.1/DTD/svg11.dtd">
<svg version="1.1" id="Layer_1" xmlns="http://www.w3.org/2000/svg" xmlns:xlink="http://www.w3.org/1999/xlink" x="0px" y="0px"
	 width="48px" height="48px" viewBox="0 0 48 48" enable-background="new 0 0 48 48" xml:space="preserve">
<g id="zXDtGm_1_">
</g>
<g>
	<path fill="none" stroke="#333333" stroke-width="2" stroke-linecap="round" stroke-linejoin="round" stroke-miterlimit="10" d="
		M45.235,29.333c0,0-2.596,0.984-3.805,0c-1.207-0.984-4.408-6.262-7.056,0.219c-2.646,6.48-3.34,18.393-6.683,0.219l-0.479-2.774
		c-0.084-0.646-0.164-1.271-0.246-1.876c-0.064-0.494-0.129-0.973-0.191-1.442c-3.854-28.782-3.412-10.53-6.471,6.106
		c-3.342,18.175-4.037,6.264-6.683-0.219c-2.645-6.48-5.847-1.203-7.055-0.219c-1.209,0.985-3.804,0-3.804,0"/>
</g>
</svg>
