<?xml version="1.0" encoding="UTF-8" standalone="no"?>
<!-- Generator: Adobe Illustrator 16.1.0, SVG Export Plug-In . SVG Version: 6.00 Build 0)  -->

<svg
   xmlns:dc="http://purl.org/dc/elements/1.1/"
   xmlns:cc="http://creativecommons.org/ns#"
   xmlns:rdf="http://www.w3.org/1999/02/22-rdf-syntax-ns#"
   xmlns:svg="http://www.w3.org/2000/svg"
   xmlns="http://www.w3.org/2000/svg"
   xmlns:sodipodi="http://sodipodi.sourceforge.net/DTD/sodipodi-0.dtd"
   xmlns:inkscape="http://www.inkscape.org/namespaces/inkscape"
   version="1.1"
   id="Layer_1"
   x="0px"
   y="0px"
   width="48px"
   height="48px"
   viewBox="0 0 48 48"
   enable-background="new 0 0 48 48"
   xml:space="preserve"
   inkscape:version="0.48.4 r9939"
   sodipodi:docname="hyper.svg"><metadata
     id="metadata3094"><rdf:RDF><cc:Work
         rdf:about=""><dc:format>image/svg+xml</dc:format><dc:type
           rdf:resource="http://purl.org/dc/dcmitype/StillImage" /><dc:title></dc:title></cc:Work></rdf:RDF></metadata><defs
     id="defs3092"><inkscape:path-effect
       effect="spiro"
       id="path-effect3884"
       is_visible="true" /><inkscape:path-effect
       effect="spiro"
       id="path-effect3880"
       is_visible="true" /><inkscape:path-effect
       effect="spiro"
       id="path-effect3876"
       is_visible="true" /><inkscape:path-effect
       effect="spiro"
       id="path-effect3872"
       is_visible="true" /><inkscape:path-effect
       effect="spiro"
       id="path-effect3868"
       is_visible="true" /></defs><sodipodi:namedview
     pagecolor="#ffffff"
     bordercolor="#666666"
     borderopacity="1"
     objecttolerance="10"
     gridtolerance="10"
     guidetolerance="10"
     inkscape:pageopacity="0"
     inkscape:pageshadow="2"
     inkscape:window-width="2558"
     inkscape:window-height="1580"
     id="namedview3090"
     showgrid="false"
     inkscape:zoom="20.579754"
     inkscape:cx="26.008631"
     inkscape:cy="28.243882"
     inkscape:window-x="0"
     inkscape:window-y="18"
     inkscape:window-maximized="0"
     inkscape:current-layer="Layer_1" /><path
     style="fill:none;stroke:#b2b2b2;stroke-width:2;stroke-miterlimit:4;stroke-opacity:1;stroke-dasharray:none"
     d="m 5.9239113,9.59412 15.8964617,-4.0200432 0,29.6852342 -15.8964617,4.020043 z"
     id="rect3050"
     inkscape:connector-curvature="0"
     sodipodi:nodetypes="ccccc" /><path
     style="fill:none;stroke:#000000;stroke-width:1.79999995;stroke-linecap:butt;stroke-linejoin:miter;stroke-miterlimit:4;stroke-opacity:1;stroke-dasharray:none"
     d="m 11.445359,12.498302 c 1.727558,-0.04798 3.46596,0.381459 4.972464,1.228339 1.506503,0.84688 2.776901,2.10884 3.633801,3.609667 0.822963,1.441387 1.25931,3.074421 1.51081,4.715034 0.2515,1.640613 0.326007,3.302409 0.473693,4.955604 0.206269,2.308973 0.576027,4.665709 1.718441,6.682834 0.571207,1.008562 1.334782,1.917903 2.280994,2.58735 0.946211,0.669447 2.079873,1.09127 3.238597,1.12015 1.366111,0.03405 2.732557,-0.491108 3.745168,-1.408734 1.09964,-0.996491 1.761272,-2.402441 2.108085,-3.845327 0.346813,-1.442887 0.403524,-2.937372 0.462553,-4.42018 0.05903,-1.482807 0.123626,-2.977741 0.485408,-4.416948 0.361781,-1.439207 1.046471,-2.836594 2.166574,-3.810027 1.059122,-0.920437 2.481224,-1.411251 3.882605,-1.340015"
     id="path3878"
     inkscape:path-effect="#path-effect3880"
     inkscape:original-d="m 11.445359,12.498302 c 0,0 -130.740639,-294.190072 8.606265,4.838006 2.857693,6.132396 -0.07878,3.705306 1.984503,9.670638 2.639628,7.631662 77.909101,138.238164 7.238032,10.390334 -38.1887348,-69.085517 5.82229,-5.330914 3.745168,-1.408734 -0.849678,1.604427 4.795377,-13.943953 5.22262,-16.492482 0.410899,-2.451035 3.882605,-1.340015 3.882605,-1.340015"
     inkscape:connector-curvature="0"
     sodipodi:nodetypes="csssssc" /><path
     style="fill:none;stroke:#000000;stroke-width:1.79999995;stroke-linecap:butt;stroke-linejoin:miter;stroke-miterlimit:4;stroke-opacity:1;stroke-dasharray:none"
     d="m 11.33984,17.647739 c 1.587998,-0.0028 3.175519,0.362111 4.602894,1.05806 1.432885,0.698635 2.692571,1.72009 3.779528,2.886184 2.102315,2.255375 3.55811,5.020424 5.256981,7.593414 0.483901,0.732883 0.994246,1.458172 1.639665,2.053749 0.645418,0.595578 1.441312,1.058662 2.311658,1.176029 0.981608,0.132371 1.989064,-0.188669 2.808367,-0.745282 0.819304,-0.556614 1.466585,-1.334431 2.006758,-2.164667 1.080345,-1.66047 1.793161,-3.588607 3.1906,-4.992698 1.354504,-1.360952 3.305808,-2.105529 5.222621,-1.992843"
     id="path3882"
     inkscape:path-effect="#path-effect3884"
     inkscape:original-d="m 11.33984,17.647739 c -2.508233,4.569792 0.667208,2.014698 4.602894,1.05806 4.62734,-1.124757 9.063507,7.221278 3.779528,2.886184 -3.893959,-3.19469 96.575758,-49.117798 5.256981,7.593414 -1.451825,0.901619 5.50756,5.157907 3.951323,3.229778 -544.839326,-675.039065 7.009284,-5.11954 8.005725,-7.902647 1.047881,-2.926781 4.741591,-2.13028 5.222621,-1.992843"
     inkscape:connector-curvature="0"
     sodipodi:nodetypes="csssssc" /></svg>