<?xml version="1.0" encoding="utf-8"?>
<!-- Generator: Adobe Illustrator 16.0.0, SVG Export Plug-In . SVG Version: 6.00 Build 0)  -->
<!DOCTYPE svg PUBLIC "-//W3C//DTD SVG 1.1//EN" "http://www.w3.org/Graphics/SVG/1.1/DTD/svg11.dtd">
<svg version="1.1" id="Layer_1" xmlns="http://www.w3.org/2000/svg" xmlns:xlink="http://www.w3.org/1999/xlink" x="0px" y="0px"
	 width="48px" height="48px" viewBox="0 0 48 48" enable-background="new 0 0 48 48" xml:space="preserve">
<g id="zXDtGm_1_">
</g>
<g>
	<path fill="#62605F" d="M26.875,41.167v-6.535c0,0,5.072-10.626,5.474-21.629c0,0,1.715-5.944,2.992,2.757
		c1.277,8.702,5.421,19.264,5.421,19.264L42,35.211v5.956H26.875z"/>
	<path fill="none" stroke="#333333" stroke-width="2" stroke-linejoin="round" stroke-miterlimit="10" d="M42,35.211h-0.81
		c-0.131-0.035-0.274-0.094-0.429-0.188c-1.382-0.834-3.638-4.406-5.261-17.998c-2.499-20.927-4.792,11.096-7.51,15.965
		s-6.532-0.619-8.491-7.162c-1.959-6.541-1.458-7.083-3.802,0.859c-2.344,7.943-8.948,8.141-8.948,8.141"/>
	<polygon fill="#B2B2B2" points="8,40 8,6 6,6 6,40 6,40 6,42 6,42 8,42 42,42 42,40 	"/>
	<path fill="#62605F" d="M26.875,41.167"/>
</g>
</svg>
