<?xml version="1.0" encoding="UTF-8" standalone="no"?>
<!-- Generator: Adobe Illustrator 16.1.0, SVG Export Plug-In . SVG Version: 6.00 Build 0)  -->

<svg
   xmlns:dc="http://purl.org/dc/elements/1.1/"
   xmlns:cc="http://creativecommons.org/ns#"
   xmlns:rdf="http://www.w3.org/1999/02/22-rdf-syntax-ns#"
   xmlns:svg="http://www.w3.org/2000/svg"
   xmlns="http://www.w3.org/2000/svg"
   xmlns:sodipodi="http://sodipodi.sourceforge.net/DTD/sodipodi-0.dtd"
   xmlns:inkscape="http://www.inkscape.org/namespaces/inkscape"
   version="1.1"
   id="Layer_1"
   x="0px"
   y="0px"
   width="48px"
   height="48px"
   viewBox="0 0 48 48"
   enable-background="new 0 0 48 48"
   xml:space="preserve"
   inkscape:version="0.91 r13725"
   sodipodi:docname="integrate.svg"><metadata
     id="metadata3094"><rdf:RDF><cc:Work
         rdf:about=""><dc:format>image/svg+xml</dc:format><dc:type
           rdf:resource="http://purl.org/dc/dcmitype/StillImage" /><dc:title /></cc:Work></rdf:RDF></metadata><defs
     id="defs3092"><inkscape:path-effect
       effect="spiro"
       id="path-effect3884"
       is_visible="true" /><inkscape:path-effect
       effect="spiro"
       id="path-effect3880"
       is_visible="true" /><inkscape:path-effect
       effect="spiro"
       id="path-effect3876"
       is_visible="true" /><inkscape:path-effect
       effect="spiro"
       id="path-effect3872"
       is_visible="true" /><inkscape:path-effect
       effect="spiro"
       id="path-effect3868"
       is_visible="true" /></defs><sodipodi:namedview
     pagecolor="#ffffff"
     bordercolor="#666666"
     borderopacity="1"
     objecttolerance="10"
     gridtolerance="10"
     guidetolerance="10"
     inkscape:pageopacity="0"
     inkscape:pageshadow="2"
     inkscape:window-width="1438"
     inkscape:window-height="881"
     id="namedview3090"
     showgrid="false"
     inkscape:zoom="29.104167"
     inkscape:cx="16.104066"
     inkscape:cy="31.673903"
     inkscape:window-x="0"
     inkscape:window-y="17"
     inkscape:window-maximized="0"
     inkscape:current-layer="Layer_1" /><path
     style="fill:none;stroke:#000000;stroke-width:1.79999995;stroke-linecap:butt;stroke-linejoin:miter;stroke-miterlimit:4;stroke-opacity:1;stroke-dasharray:none"
     d="m 6.9749463,13.503221 c 1.3061994,-2.245166 3.7912667,-3.7578142 6.3855447,-3.8868489 2.594278,-0.1290347 5.217182,1.1295519 6.739724,3.2340219 0.897468,1.240488 1.414254,2.722933 1.701467,4.22685 0.287214,1.503917 0.355446,3.039803 0.428811,4.569142 0.120948,2.521251 0.273957,5.110486 1.320322,7.40754 0.523182,1.148527 1.271852,2.207277 2.25445,2.999323 0.982597,0.792046 2.207389,1.306097 3.468894,1.344031 1.366565,0.04109 2.73409,-0.488458 3.745168,-1.408734 1.097351,-0.998801 1.757047,-2.405085 2.103072,-3.848016 0.346026,-1.442931 0.402924,-2.937181 0.462619,-4.419821 0.0597,-1.482639 0.125437,-2.977388 0.488248,-4.41619 0.362811,-1.438802 1.048359,-2.83549 2.168681,-3.808455 1.059384,-0.920043 2.481261,-1.410779 3.882605,-1.340015"
     id="path3878"
     inkscape:path-effect="#path-effect3880"
     inkscape:original-d="m 6.9749463,13.503221 c 0,0 -126.2216363,-299.680901 13.1252687,-0.652827 2.857693,6.132396 0.067,2.83066 2.130278,8.795992 2.639628,7.631662 77.714735,139.598724 7.043666,11.750894 -38.1887348,-69.085517 5.82229,-5.330914 3.745168,-1.408734 -0.849678,1.604427 4.795377,-13.943953 5.22262,-16.492482 0.410899,-2.451035 3.882605,-1.340015 3.882605,-1.340015"
     inkscape:connector-curvature="0"
     sodipodi:nodetypes="csssssc" /><polygon
     fill="#B2B2B2"
     points="8,40 8,6 6,6 6,40 6,40 6,42 6,42 8,42 42,42 42,40 "
     id="polygon3088" /><rect
     style="fill:#ffffff;fill-opacity:1;stroke:#ffffff;stroke-width:1.80000007;stroke-linecap:square;stroke-miterlimit:4;stroke-opacity:1;stroke-dasharray:none;stroke-dashoffset:0"
     id="rect3905"
     width="0.30923393"
     height="35.080887"
     x="55.799572"
     y="7.3185391" /><path
     style="fill:none;fill-rule:evenodd;stroke:#b2b2b2;stroke-width:2;stroke-linecap:butt;stroke-linejoin:miter;stroke-miterlimit:4;stroke-dasharray:none;stroke-opacity:1"
     d="m 29.17967,5.9785267 0,35.9398693"
     id="path3418"
     inkscape:connector-curvature="0" /><path
     style="fill:#ff0000;stroke:none;stroke-width:2;stroke-miterlimit:4;stroke-dasharray:none;stroke-opacity:1"
     d="m 8.0299516,26.663105 3.302e-4,-13.116678 0.1792361,-0.240516 c 0.2324702,-0.311949 0.8322999,-0.929939 1.1601177,-1.19524 0.9890484,-0.800431 2.2270464,-1.346272 3.4466904,-1.519666 0.452459,-0.06433 1.384553,-0.06388 1.840178,8.82e-4 1.538438,0.218667 2.978741,0.947251 4.072012,2.059843 1.092263,1.111568 1.834561,2.718361 2.199058,4.760123 0.173378,0.971195 0.261287,1.862704 0.347278,3.521832 0.169747,3.275105 0.274749,4.353145 0.555545,5.703651 0.480658,2.311764 1.427973,4.215692 2.760773,5.548649 0.938312,0.938422 2.016754,1.577761 3.220842,1.90943 l 0.352183,0.09701 0,2.79368 0,2.793679 -10.067287,0 -10.0672867,0 3.302e-4,-13.116679 z"
     id="path4230"
     inkscape:connector-curvature="0" /><path
     style="fill:#ff0000;stroke:none;stroke-width:2;stroke-miterlimit:4;stroke-dasharray:none;stroke-opacity:1"
     d="m 13.040272,39.99453 c 2.784205,-0.0048 7.329946,-0.0048 10.101646,1e-6 2.771701,0.0048 0.493716,0.0088 -5.062189,0.0088 -5.555906,0 -7.823661,-0.004 -5.039457,-0.0088 z"
     id="path4232"
     inkscape:connector-curvature="0" /><path
     style="fill:#ff0000;stroke:none;stroke-width:2;stroke-miterlimit:4;stroke-dasharray:none;stroke-opacity:1"
     d="m 8.0296213,39.573628 0,-0.412312 10.0672867,0 10.067287,0 0,0.412312 0,0.412312 -10.067287,0 -10.0672867,0 0,-0.412312 z"
     id="path4234"
     inkscape:connector-curvature="0" /></svg>