<?xml version="1.0" encoding="UTF-8" standalone="no"?>
<!-- Generator: Adobe Illustrator 16.1.0, SVG Export Plug-In . SVG Version: 6.00 Build 0)  -->

<svg
   xmlns:dc="http://purl.org/dc/elements/1.1/"
   xmlns:cc="http://creativecommons.org/ns#"
   xmlns:rdf="http://www.w3.org/1999/02/22-rdf-syntax-ns#"
   xmlns:svg="http://www.w3.org/2000/svg"
   xmlns="http://www.w3.org/2000/svg"
   xmlns:sodipodi="http://sodipodi.sourceforge.net/DTD/sodipodi-0.dtd"
   xmlns:inkscape="http://www.inkscape.org/namespaces/inkscape"
   version="1.1"
   id="Layer_1"
   x="0px"
   y="0px"
   width="48px"
   height="48px"
   viewBox="0 0 48 48"
   enable-background="new 0 0 48 48"
   xml:space="preserve"
   inkscape:version="0.48.4 r9939"
   sodipodi:docname="interpolate.svg"><metadata
     id="metadata3094"><rdf:RDF><cc:Work
         rdf:about=""><dc:format>image/svg+xml</dc:format><dc:type
           rdf:resource="http://purl.org/dc/dcmitype/StillImage" /><dc:title /></cc:Work></rdf:RDF></metadata><defs
     id="defs3092"><inkscape:path-effect
       effect="spiro"
       id="path-effect3884"
       is_visible="true" /><inkscape:path-effect
       effect="spiro"
       id="path-effect3880"
       is_visible="true" /><inkscape:path-effect
       effect="spiro"
       id="path-effect3876"
       is_visible="true" /><inkscape:path-effect
       effect="spiro"
       id="path-effect3872"
       is_visible="true" /><inkscape:path-effect
       effect="spiro"
       id="path-effect3868"
       is_visible="true" /></defs><sodipodi:namedview
     pagecolor="#ffffff"
     bordercolor="#666666"
     borderopacity="1"
     objecttolerance="10"
     gridtolerance="10"
     guidetolerance="10"
     inkscape:pageopacity="0"
     inkscape:pageshadow="2"
     inkscape:window-width="2558"
     inkscape:window-height="1580"
     id="namedview3090"
     showgrid="false"
     inkscape:zoom="29.104167"
     inkscape:cx="34.457891"
     inkscape:cy="27.772466"
     inkscape:window-x="0"
     inkscape:window-y="18"
     inkscape:window-maximized="0"
     inkscape:current-layer="Layer_1" /><path
     style="fill:none;stroke:#808080;stroke-width:1.97815084;stroke-linecap:butt;stroke-linejoin:miter;stroke-miterlimit:4;stroke-opacity:1;stroke-dasharray:none"
     d="m 5.6604439,15.494561 c 0.013471,-1.428826 0.4894751,-2.849663 1.3394757,-3.998238 0.8500006,-1.148574 2.0696819,-2.0190544 3.4321844,-2.4495318 1.362503,-0.4304773 2.860909,-0.4187662 4.216517,0.032955 1.355608,0.4517214 2.561534,1.3411596 3.393478,2.5028796 0.66499,0.928587 1.087589,2.011714 1.377037,3.11657 0.289447,1.104856 0.451441,2.238287 0.637792,3.365123 0.270142,1.633513 0.592565,3.258558 0.826388,4.897664 0.38883,2.72571 0.54448,5.535809 1.613094,8.073278 0.534306,1.268735 1.301513,2.455814 2.340173,3.359339 1.03866,0.903524 2.361481,1.509627 3.73697,1.566199 1.495893,0.06152 2.991313,-0.540171 4.088954,-1.558339 1.201874,-1.114854 1.918599,-2.67318 2.291435,-4.269549 0.372836,-1.596369 0.428446,-3.247227 0.489125,-4.885433 0.06068,-1.638205 0.129918,-3.289872 0.528648,-4.879971 0.398731,-1.590099 1.15535,-3.133794 2.392821,-4.208999 1.157463,-1.005688 2.707055,-1.547559 4.239006,-1.482322"
     id="path3878"
     inkscape:path-effect="#path-effect3880"
     inkscape:original-d="m 5.6604439,15.494561 c 0,0 -139.7565739,-334.696211 12.3816551,-3.911935 1.490503,3.240703 2.088995,5.748953 2.014829,6.481693 -0.08108,0.801077 -0.350133,1.451243 0.826388,4.897664 2.88193,8.442129 84.848524,154.423847 7.690237,12.998816 -41.694256,-76.422266 6.356744,-5.897047 4.088954,-1.558339 -0.927674,1.774815 5.235567,-15.424774 5.702029,-18.243952 0.448617,-2.71133 4.239006,-1.482322 4.239006,-1.482322"
     inkscape:connector-curvature="0"
     sodipodi:nodetypes="cssssssc" /><rect
     style="fill:#ffffff;fill-opacity:1;stroke:#ffffff;stroke-width:1.80000007;stroke-linecap:square;stroke-miterlimit:4;stroke-opacity:1;stroke-dasharray:none;stroke-dashoffset:0"
     id="rect3905"
     width="0.30923393"
     height="35.080887"
     x="55.799572"
     y="7.3185391" /><path
     sodipodi:type="arc"
     style="fill:#000000;stroke:#000000"
     id="path3081"
     sodipodi:cx="4.3464565"
     sodipodi:cy="30.80315"
     sodipodi:rx="1.4946313"
     sodipodi:ry="1.4946313"
     d="m 5.8410878,30.80315 a 1.4946313,1.4946313 0 1 1 -2.9892626,0 1.4946313,1.4946313 0 1 1 2.9892626,0 z"
     transform="matrix(1.6441881,0,0,1.6441881,-1.4119397,-35.995434)" /><path
     sodipodi:type="arc"
     style="fill:#000000;stroke:#000000"
     id="path3081-3"
     sodipodi:cx="4.3464565"
     sodipodi:cy="30.80315"
     sodipodi:rx="1.4946313"
     sodipodi:ry="1.4946313"
     d="m 5.8410878,30.80315 a 1.4946313,1.4946313 0 1 1 -2.9892626,0 1.4946313,1.4946313 0 1 1 2.9892626,0 z"
     transform="matrix(1.6441881,0,0,1.6441881,10.273794,-39.204511)" /><path
     sodipodi:type="arc"
     style="fill:#000000;stroke:#000000"
     id="path3081-5"
     sodipodi:cx="4.3464565"
     sodipodi:cy="30.80315"
     sodipodi:rx="1.4946313"
     sodipodi:ry="1.4946313"
     d="m 5.8410878,30.80315 a 1.4946313,1.4946313 0 1 1 -2.9892626,0 1.4946313,1.4946313 0 1 1 2.9892626,0 z"
     transform="matrix(1.6441881,0,0,1.6441881,15.187179,-20.581749)" /><path
     sodipodi:type="arc"
     style="fill:#000000;stroke:#000000"
     id="path3081-6"
     sodipodi:cx="4.3464565"
     sodipodi:cy="30.80315"
     sodipodi:rx="1.4946313"
     sodipodi:ry="1.4946313"
     d="m 5.8410878,30.80315 a 1.4946313,1.4946313 0 1 1 -2.9892626,0 1.4946313,1.4946313 0 1 1 2.9892626,0 z"
     transform="matrix(1.6441881,0,0,1.6441881,26.010372,-17.489408)" /><path
     sodipodi:type="arc"
     style="fill:#000000;stroke:#000000"
     id="path3081-2"
     sodipodi:cx="4.3464565"
     sodipodi:cy="30.80315"
     sodipodi:rx="1.4946313"
     sodipodi:ry="1.4946313"
     d="m 5.8410878,30.80315 a 1.4946313,1.4946313 0 1 1 -2.9892626,0 1.4946313,1.4946313 0 1 1 2.9892626,0 z"
     transform="matrix(1.6441881,0,0,1.6441881,33.91302,-36.112172)" /></svg>