<?xml version="1.0" encoding="utf-8"?>
<!-- Generator: Adobe Illustrator 16.0.0, SVG Export Plug-In . SVG Version: 6.00 Build 0)  -->
<!DOCTYPE svg PUBLIC "-//W3C//DTD SVG 1.1//EN" "http://www.w3.org/Graphics/SVG/1.1/DTD/svg11.dtd">
<svg version="1.1" id="Layer_1" xmlns="http://www.w3.org/2000/svg" xmlns:xlink="http://www.w3.org/1999/xlink" x="0px" y="0px"
	 width="48px" height="48px" viewBox="0 0 48 48" enable-background="new 0 0 48 48" xml:space="preserve">
<g id="zXDtGm_1_">
</g>
<g>
	<g>
		<g>
			<line fill="none" stroke="#B2B2B2" stroke-width="2" stroke-miterlimit="10" x1="4.143" y1="28.454" x2="4.893" y2="28.454"/>
			
				<line fill="none" stroke="#B2B2B2" stroke-width="2" stroke-miterlimit="10" stroke-dasharray="1.5267,1.5267" x1="6.419" y1="28.454" x2="42.295" y2="28.454"/>
			<line fill="none" stroke="#B2B2B2" stroke-width="2" stroke-miterlimit="10" x1="43.059" y1="28.454" x2="43.809" y2="28.454"/>
		</g>
	</g>
	<path fill="none" stroke="#62605F" stroke-width="2" stroke-miterlimit="10" d="M4.143,22.183c0,0,7.439-0.134,10.081-5.576
		c2.643-5.442,2.076-5.071,4.282-0.589c2.209,4.483,6.506,8.243,9.568,4.907c3.061-3.338,5.645-25.278,8.461-10.939
		c1.828,9.312,4.369,11.76,5.926,12.332c0.174,0.064,0.336,0.104,0.486,0.129h0.91"/>
	<path fill="none" stroke="#333333" stroke-width="2" stroke-linejoin="round" stroke-miterlimit="10" d="M4.143,41.994h0.501
		c0,0,3.336,0.293,6.794-2.457s4.87-7.189,9.914,0.468c5.043,7.657,8.357-2.479,9.248-4.41c0.959-2.083,4.062-5.767,6.904-0.534
		c2.92,5.377,3.266,7.418,5.641,7.385h0.713"/>
</g>
</svg>
