<?xml version="1.0" standalone="no"?><!-- Generator: Gravit.io --><svg xmlns="http://www.w3.org/2000/svg" xmlns:xlink="http://www.w3.org/1999/xlink" style="isolation:isolate" viewBox="0 0 48 48" width="48" height="48"><defs><clipPath id="_clipPath_KYHueqUcGTbwN6gz6fKpWYpwly9dczox"><rect width="48" height="48"/></clipPath></defs><g clip-path="url(#_clipPath_KYHueqUcGTbwN6gz6fKpWYpwly9dczox)"><path d=" M 24.872 26.89 L 27.696 31.38 L 27.696 31.38 Q 28.416 32.377 29.039 32.729 L 29.039 32.729 L 29.039 32.729 Q 29.662 33.081 29.925 33.081 L 29.925 33.081 L 29.925 33.081 Q 30.188 33.081 30.188 33.228 L 30.188 33.228 L 30.188 33.228 Q 30.188 33.962 29.786 34.49 L 29.786 34.49 L 29.786 34.49 Q 29.385 35.018 28.956 35.018 L 28.956 35.018 L 28.956 35.018 Q 28.527 35.018 28.277 34.915 L 28.277 34.915 L 28.277 34.915 Q 28.028 34.813 27.751 34.519 L 27.751 34.519 L 27.751 34.519 Q 27.475 34.226 27.225 33.918 L 27.225 33.918 L 27.225 33.918 Q 26.976 33.61 26.575 32.993 L 26.575 32.993 L 26.575 32.993 Q 26.173 32.377 25.827 31.834 L 25.827 31.834 L 25.827 31.834 Q 25.481 31.292 24.872 30.323 L 24.872 30.323 L 24.872 30.323 Q 24.263 29.355 23.737 28.533 L 23.737 28.533 L 23.737 28.533 Q 22.574 30.323 21.37 32.245 L 21.37 32.245 L 21.37 32.245 Q 20.165 34.167 19.875 34.519 L 19.875 34.519 L 19.875 34.519 Q 19.584 34.871 19.238 34.871 L 19.238 34.871 L 19.238 34.871 Q 18.892 34.871 18.601 34.593 L 18.601 34.593 L 18.601 34.593 Q 18.311 34.314 18.311 33.962 L 18.311 33.962 L 18.311 33.962 Q 18.311 33.61 18.394 33.375 L 18.394 33.375 L 18.394 33.375 Q 18.477 33.14 18.809 32.656 L 18.809 32.656 L 18.809 32.656 Q 19.141 32.172 19.556 31.585 L 19.556 31.585 L 19.556 31.585 Q 20.719 30 22.713 26.92 L 22.713 26.92 L 20.332 23.164 L 20.332 23.164 Q 19.75 22.372 19.224 21.961 L 19.224 21.961 L 19.224 21.961 Q 18.698 21.55 18.421 21.521 L 18.421 21.521 L 18.421 21.521 Q 17.812 21.462 17.812 21.198 L 17.812 21.198 L 17.812 21.198 Q 17.812 20.464 18.186 19.965 L 18.186 19.965 L 18.186 19.965 Q 18.56 19.467 19.224 19.467 L 19.224 19.467 L 19.224 19.467 Q 19.889 19.467 20.498 20.23 L 20.498 20.23 L 20.498 20.23 Q 21.107 20.992 22.104 22.592 L 22.104 22.592 L 22.104 22.592 Q 23.1 24.191 23.211 24.367 L 23.211 24.367 L 23.211 24.367 Q 23.322 24.543 23.502 24.836 L 23.502 24.836 L 23.502 24.836 Q 23.682 25.13 23.848 25.394 L 23.848 25.394 L 23.848 25.394 Q 26.949 20.435 27.032 20.318 L 27.032 20.318 L 27.032 20.318 Q 27.502 19.613 27.904 19.613 L 27.904 19.613 L 27.904 19.613 Q 28.305 19.613 28.582 19.921 L 28.582 19.921 L 28.582 19.921 Q 28.859 20.23 28.859 20.596 L 28.859 20.596 L 28.859 20.596 Q 28.859 20.963 28.527 21.535 L 28.527 21.535 L 28.527 21.535 Q 28.194 22.107 26.976 23.853 L 26.976 23.853 L 26.976 23.853 Q 25.758 25.599 24.872 26.89 L 24.872 26.89 Z " fill="rgb(0,0,0)"/><path d=" M 17.339 15.88 L 17.339 15.88 Q 16.687 15.88 16.197 15.647 L 16.197 15.647 L 16.197 15.647 Q 15.708 15.414 15.708 15.042 L 15.708 15.042 L 15.708 15.042 Q 15.708 14.472 16.442 14.001 L 16.442 14.001 L 16.442 14.001 Q 17.176 13.531 18.331 13.256 L 18.331 13.256 L 18.331 13.256 Q 19.487 12.982 20.738 12.982 L 20.738 12.982 L 20.738 12.982 Q 22.206 12.982 23.239 13.215 L 23.239 13.215 L 23.239 13.215 Q 24.272 13.448 25.387 13.862 L 25.387 13.862 L 25.387 13.862 Q 26.148 14.131 26.637 14.255 L 26.637 14.255 L 26.637 14.255 Q 27.127 14.379 27.643 14.379 L 27.643 14.379 L 27.643 14.379 Q 28.377 14.379 28.799 14.25 L 28.799 14.25 L 28.799 14.25 Q 29.22 14.12 29.682 13.872 L 29.682 13.872 L 29.682 13.872 Q 30.063 13.665 30.335 13.577 L 30.335 13.577 L 30.335 13.577 Q 30.606 13.489 31.041 13.489 L 31.041 13.489 L 31.041 13.489 Q 31.667 13.489 31.979 13.681 L 31.979 13.681 L 31.979 13.681 Q 32.292 13.872 32.292 14.162 L 32.292 14.162 L 32.292 14.162 Q 32.292 14.659 31.748 15.14 L 31.748 15.14 L 31.748 15.14 Q 31.205 15.621 30.144 15.932 L 30.144 15.932 L 30.144 15.932 Q 29.084 16.242 27.643 16.242 L 27.643 16.242 L 27.643 16.242 Q 26.773 16.242 25.903 16.04 L 25.903 16.04 L 25.903 16.04 Q 25.033 15.839 23.81 15.456 L 23.81 15.456 L 23.81 15.456 Q 22.668 15.104 22.002 14.943 L 22.002 14.943 L 22.002 14.943 Q 21.336 14.783 20.683 14.783 L 20.683 14.783 L 20.683 14.783 Q 19.895 14.783 19.419 14.959 L 19.419 14.959 L 19.419 14.959 Q 18.943 15.135 18.427 15.466 L 18.427 15.466 L 18.427 15.466 Q 18.073 15.683 17.856 15.782 L 17.856 15.782 L 17.856 15.782 Q 17.638 15.88 17.339 15.88 L 17.339 15.88 Z " fill="rgb(0,0,0)"/></g></svg>