<?xml version="1.0" encoding="utf-8"?>
<!-- Generator: Adobe Illustrator 16.0.0, SVG Export Plug-In . SVG Version: 6.00 Build 0)  -->
<!DOCTYPE svg PUBLIC "-//W3C//DTD SVG 1.1//EN" "http://www.w3.org/Graphics/SVG/1.1/DTD/svg11.dtd">
<svg version="1.1" id="Layer_1" xmlns="http://www.w3.org/2000/svg" xmlns:xlink="http://www.w3.org/1999/xlink" x="0px" y="0px"
	 width="48px" height="48px" viewBox="0 0 48 48" enable-background="new 0 0 48 48" xml:space="preserve">
<g id="zXDtGm_1_">
</g>
<g>
	<polygon fill="#B2B2B2" points="11.564,9.9 19.285,6.077 19.285,15.478 11.564,19.3 	"/>
	<polygon fill="#62605F" points="3.846,13.78 11.564,9.957 11.564,19.355 3.846,23.179 	"/>
	<polygon fill="#62605F" points="11.564,19.299 19.285,15.476 19.285,24.876 11.564,28.699 	"/>
	<polygon fill="#B2B2B2" points="3.846,23.123 11.564,19.3 11.564,28.699 3.846,32.523 	"/>
	<polygon fill="#B2B2B2" points="11.564,28.686 19.285,24.861 19.285,34.262 11.564,38.087 	"/>
	<polygon fill="#62605F" points="3.846,32.523 11.564,28.699 11.564,38.1 3.846,41.923 	"/>
	<path fill="none" stroke="#B2B2B2" stroke-width="1.7" stroke-miterlimit="10" d="M10.347,16.939"/>
	<path fill="none" stroke="#333333" stroke-width="2" stroke-linejoin="round" stroke-miterlimit="10" d="M15.688,31.361
		c0,0,5.333-0.158,7.227-6.573c1.894-6.414,1.487-5.976,3.069-0.693c1.582,5.283,4.662,9.716,6.857,5.783
		c2.193-3.933,4.045-29.791,6.064-12.892c1.311,10.975,3.131,13.859,4.246,14.534c0.125,0.075,0.242,0.123,0.348,0.15h0.654"/>
</g>
</svg>
