<svg id="Layer_1" data-name="Layer 1" xmlns="http://www.w3.org/2000/svg" viewBox="0 0 301.8 247.42"><defs><style>.cls-1{fill:#b3b3b3;}.cls-2{fill:none;stroke:#333;stroke-linecap:round;stroke-linejoin:round;stroke-width:2.83px;}</style></defs><title>SNR_menu</title><path class="cls-1" d="M270.39,336.12c13.37-11.9,21.23-27.11,28.48-42,10.35-21.83,18.31-44.37,27.5-66.53,9.68-21.56,27.22-71.13,51.12-25.67,9.69,18,16.4,37,23.92,55.63,12.06,27.79,26.56,75.56,61.15,88.82h0c15.17,5.6,32.24,5.42,48.56,5.77-16.32-.51-33.39-.25-48.56-8.42h0c-34.59-19.31-49.09-88.93-61.15-129.43-7.52-27.19-14.23-54.83-23.92-81.07-23.9-66.25-41.44,6-51.12,37.41-9.19,32.3-17.15,65.14-27.5,97-7.25,21.64-15.11,43.79-28.48,61.14C255.82,348.64,233,351.69,212.14,352h3.43C235.45,351.58,256.62,349,270.39,336.12Z" transform="translate(-210.73 -106.18)"/><path id="_39579056" data-name=" 39579056" class="cls-2" d="M212.14,352h.64l.33,0h.66l.33,0H216l.34,0h1l.32,0h.3l.33,0h.32l.34,0h.63l.33,0,.32,0,.34,0,.32,0h.32l.33,0,.32,0h.32l.32,0,.32,0,.34,0,.32,0,.31,0,.34,0,.32,0,.3,0,.33,0,.32,0,.33,0,.33,0,.3,0,.34,0,.31,0,.34,0,.33,0,.31,0,.33,0,.32,0,.31,0,.33,0,.32,0,.33,0,.33,0,.31,0,.33,0,.32,0,.34,0,.33,0,.31,0,.34,0,.32-.05.31,0,.33,0,.32,0,.33-.05.33-.05.31,0,.33-.05.32-.05.31-.05.33-.05.32,0,.33-.06.32-.05.32-.06.33-.06.32-.06.33-.06.33-.06.31-.07.34-.06.32-.07.31-.06.33-.07.32-.07.33-.07.33-.08.31-.07.33-.08.32-.07.34-.09.32-.08.33-.08.33-.09.32-.08.31-.09.33-.09.32-.09.33-.1.33-.09.31-.09.34-.11.32-.1.31-.09.33-.11.31-.11.34-.1.32-.12.31-.11.33-.11.32-.12.34-.12.33-.13.31-.11.34-.14.31-.12.32-.13.32-.14.32-.13.34-.14.33-.14.31-.14.33-.15.32-.15.31-.14.33-.15.31-.15.34-.17.32-.16.31-.16.33-.17.32-.17.34-.18.32-.18.31-.17.34-.19.32-.18.31-.18.33-.19.31-.2.35-.2.32-.2.31-.2.33-.21.32-.21.34-.23.32-.22.32-.21.34-.24.32-.22L262,340l.33-.24.31-.23.34-.26.33-.25.31-.24.33-.26.32-.26.31-.25.33-.27.31-.26.34-.29.32-.28.31-.27.34-.29.31-.29.34-.31.33-.3.31-.29.34-.32.32-.32.31-.3.33-.33.32-.32.34-.34.32-.34.31-.33.33-.35.32-.35.31-.34.33-.36.31-.35.34-.38.32-.38.31-.36.33-.4.32-.37.33-.42.33-.4.31-.39.34-.42.32-.42.31-.4.33-.43.31-.41.34-.46.33-.44.3-.43.34-.46.32-.45.33-.49.33-.47.31-.45.34-.5.33-.49.3-.46.33-.5.32-.5.33-.53.33-.51.31-.5.33-.53L282,317l.31-.51.33-.55.32-.53.33-.57.33-.56.31-.54.33-.58.32-.57.33-.61.33-.59.31-.58.33-.61.33-.6.31-.59.33-.63.31-.6.34-.66.33-.63.31-.62.33-.66.32-.65.34-.69.33-.67.31-.65.34-.7.32-.68.31-.66.33-.71.32-.68.33-.74.33-.71.31-.69.34-.75.32-.72.3-.7.34-.75.31-.73.33-.78.33-.76L295,291l.33-.79.32-.76.34-.82.32-.78.32-.78.33-.82.32-.79.31-.78.33-.82.32-.8.34-.86.32-.83.31-.8.34-.86.32-.84.31-.8.32-.87.32-.83.33-.89.33-.87.31-.83.32-.9.32-.87.34-.92.33-.9.31-.87.33-.93.33-.9.31-.86.32-.92.32-.9.34-.95.32-.93.31-.9.33-1,.32-.92.34-1,.33-.95.32-.92.33-1,.32-.95.31-.91.33-1,.32-1,.34-1,.32-1,.31-.94.33-1,.33-1,.3-.93.33-1,.32-1,.34-1,.32-1,.31-1,.33-1,.32-1,.34-1,.32-1,.32-1,.33-1,.32-1,.31-1,.33-1,.31-1,.35-1.05.32-1,.31-1,.33-1,.32-1,.34-1.06.33-1,.31-1,.34-1,.32-1,.31-1,.33-1,.32-1,.34-1,.32-1,.32-1,.33-1,.32-1,.31-.94.33-1,.32-1,.33-1,.32-1,.31-.94.34-1,.31-.95.35-1,.32-1,.31-.94.34-1,.32-1,.31-.92.33-1,.32-.93.33-1,.33-.94.31-.9.33-.95.33-.92.3-.87.33-.93.32-.88.33-.94.33-.89.31-.86.33-.91.32-.86.33-.92.33-.87.31-.84.34-.88.32-.84.31-.81.32-.85.32-.8.34-.86.32-.82.31-.77.33-.82.33-.78.34-.82.32-.79.32-.74.33-.79.33-.75.31-.71.32-.75.32-.71.34-.74.33-.71.31-.68.33-.71.32-.67.31-.64.33-.67.32-.63.33-.67.32-.63.31-.59.33-.63.32-.59.34-.62.33-.58.31-.55.34-.58.32-.54.31-.52.33-.53.32-.5.33-.52.33-.5.31-.46.33-.48.32-.45.31-.43.33-.43.32-.41.33-.43.32-.39.31-.37.33-.39L349,151l.33-.36.33-.34.32-.32.33-.32.32-.3L351,149l.33-.28.32-.25.33-.26.32-.24.32-.21.32-.21.32-.2.34-.19.33-.17.32-.16.33-.15.32-.13.32-.11.32-.11.32-.09.34-.08.32-.06.31-.06.17,0,.17,0h1.6l.33,0,.31.06.34.06.32.08.31.09.32.11.32.11.33.14.33.14.31.16.33.17.32.18.34.21.33.21.31.21.33.25.32.25.32.25.32.28.32.28.34.31.33.31.31.31.33.35.32.35.3.34.34.37.31.39.34.4.32.41.31.41.33.44.32.44.34.47.32.47.31.47.34.5.32.5.31.49.33.54.31.52.34.57.33.56.31.55.33.59.32.58.67,1.25.31.6.33.66.32.63.32.63.33.67.31.66.34.71.64,1.36.33.73.32.71.31.69.33.75.31.72.34.78.33.76.3.74.34.79.32.77.33.83.33.8.31.79.34.84.32.81.31.8.33.84.32.83.33.88.33.86.31.83.33.89.32.87.3.83.33.9.32.87.33.93.33.9.31.87.33.94.32.9.33,1,.33.93.31.91.33,1,.33.93.3.9.33,1,.32.93.34,1,.32,1,.31.93.65,2,.34,1,.33,1,.31.95.33,1,.33,1,.31.94.33,1,.32,1,.33,1,.33,1,.31,1,.33,1,.32,1,.31,1,.33,1,.31,1,.34,1,.32,1,.31,1,.33,1,.32,1,.34,1,.33,1,.31,1,.33,1,.32,1,.31.95.33,1,.32,1,.34,1,.32,1,.31,1,.33,1,.32,1,.34,1,.33,1,.32,1,.33,1,.32,1,.31.94.33,1,.32,1,.34,1,.32,1,.32.94.33,1,.32.95.31.92.32,1,.32.94.34,1,.32.95.31.91.34,1,.31.93.34,1,.33.94.31.9.34.95.32.91.31.88.32.93.32.89.34.94.33.91.31.86.33.91.32.88.3.84.34.89.31.85.33.9.33.85.31.83.33.87.32.84.33.88.33.84.32.8.33.86.32.82.31.78.33.82.31.79.34.83.33.8.3.76.34.81.31.77.34.8.33.79.31.73.34.79.32.75.31.71.34.76.31.71.34.76.32.73.32.7.33.73.32.69.31.66.33.71.31.67.34.71.32.68.31.64.33.68.32.65.34.68.32.65.32.63.33.65.33.62.3.6.33.63.32.59.34.64.32.59.31.58.33.6.32.58.34.6.33.58.31.55.34.57.33.55.3.53.34.55.31.53.34.55.33.53.31.5.33.53.32.5.31.48.33.5.32.48.33.5.33.48.3.46.34.47.32.46.33.48.33.45.32.44.33.45.32.43.31.41.33.44.32.41.34.43.32.41.32.4.33.4.32.39.3.37.33.39.32.37.33.39.33.37.31.35.33.37.32.35.33.36.33.35.31.33.34.34.32.33.31.32.33.32.31.32.34.32.32.31.32.29.32.31.32.29.34.31.33.29.32.27.33.29.32.28.32.26.32.27.32.26.34.27.33.25.31.25.33.25.32.24.31.23.33.24.31.23.34.24.32.22.31.21.33.22.32.22.34.22.33.21.31.2.66.4.3.18.34.2.31.19.34.19.32.18.32.17.33.18.32.18.31.16.32.17.32.16.33.16.33.16.31.15.33.16.32.15m0,0,.35.15.32.15.31.14.34.14.32.14.31.13.33.13.31.13.34.13.32.13.31.12.33.13.32.11.34.12.33.12.31.11.33.12.33.1.31.11.33.1.32.1.33.11.33.1.31.09.34.1.31.09.31.09.33.09.31.08.34.09.33.09.3.08.34.08.31.08.34.08.33.08.31.07.34.07.32.07.31.07.33.07.31.07.34.07.32.06.31.06.34.07.32.06.34.06.33.06.3.05.34.06.33,0,.31.06.33.05.32.05.33.05.33.05.31,0,.33.05.33.05.3,0,.33,0,.32,0,.34.05.32,0,.31,0,.33.05.32,0,.33,0,.33,0,.31,0,.34,0,.32,0,.31,0,.33,0,.32,0,.34,0,.32,0,.31,0,.33,0,.32,0,.31,0,.33,0,.32,0,.33,0,.33,0,.3,0,.33,0,.32,0,.34,0,.33,0,.31,0,.33,0,.33,0,.31,0,.33,0,.31,0,.33,0,.33,0h.31l.33,0,.32,0,.34,0,.33,0h.64l.33,0h.31l.33,0h.32l.33,0h1l.32,0h1.92l.33,0h.66l.32,0h8.09" transform="translate(-210.73 -106.18)"/></svg>